<svg width="16" height="19" viewBox="0 0 16 19" fill="none" xmlns="http://www.w3.org/2000/svg">
<path d="M14.1875 7C14.6445 7 15.0312 7.17578 15.3828 7.49219C15.6992 7.84375 15.875 8.23047 15.875 8.6875V16.5625C15.875 17.0547 15.6992 17.4414 15.3828 17.7578C15.0312 18.1094 14.6445 18.25 14.1875 18.25H1.8125C1.32031 18.25 0.933594 18.1094 0.617188 17.7578C0.265625 17.4414 0.125 17.0547 0.125 16.5625V8.6875C0.125 8.23047 0.265625 7.84375 0.617188 7.49219C0.933594 7.17578 1.32031 7 1.8125 7H2.9375V5.3125C2.9375 4.39844 3.14844 3.55469 3.60547 2.78125C4.0625 2.00781 4.69531 1.41016 5.46875 0.953125C6.24219 0.496094 7.08594 0.25 8 0.25C8.91406 0.25 9.75781 0.496094 10.5312 0.953125C11.3047 1.41016 11.9023 2.04297 12.3594 2.81641C12.8164 3.58984 13.0625 4.43359 13.0625 5.34766V7H14.1875ZM4.625 5.3125V7H11.375V5.3125C11.375 4.39844 11.0234 3.58984 10.3906 2.92188C9.72266 2.28906 8.91406 1.9375 8 1.9375C7.05078 1.9375 6.24219 2.28906 5.60938 2.92188C4.94141 3.58984 4.625 4.39844 4.625 5.3125ZM14.1875 16.5625V8.6875H1.8125V16.5625H14.1875Z" fill="#FC591E"/>
<path d="M15.3828 7.49219L15.4202 7.45855L15.4163 7.45502L15.3828 7.49219ZM0.617188 17.7578L0.654559 17.7242L0.650636 17.7206L0.617188 17.7578ZM2.9375 7V7.05H2.9875V7H2.9375ZM13.0625 7H13.0125V7.05H13.0625V7ZM4.625 7H4.575V7.05H4.625V7ZM11.375 7V7.05H11.425V7H11.375ZM10.3906 2.92188L10.427 2.88744L10.425 2.88558L10.3906 2.92188ZM14.1875 16.5625V16.6125H14.2375V16.5625H14.1875ZM14.1875 8.6875H14.2375V8.6375H14.1875V8.6875ZM1.8125 8.6875V8.6375H1.7625V8.6875H1.8125ZM1.8125 16.5625H1.7625V16.6125H1.8125V16.5625ZM14.1875 7.05C14.6299 7.05 15.0051 7.21956 15.3494 7.52935L15.4163 7.45502C15.0574 7.132 14.6591 6.95 14.1875 6.95V7.05ZM15.3456 7.52564C15.6554 7.86985 15.825 8.24508 15.825 8.6875H15.925C15.925 8.21585 15.743 7.81765 15.42 7.45874L15.3456 7.52564ZM15.825 8.6875V16.5625H15.925V8.6875H15.825ZM15.825 16.5625C15.825 17.0409 15.6548 17.4151 15.3475 17.7225L15.4182 17.7932C15.7436 17.4677 15.925 17.0684 15.925 16.5625H15.825ZM15.3475 17.7225C15.0059 18.064 14.6322 18.2 14.1875 18.2V18.3C14.6569 18.3 15.0566 18.1547 15.4182 17.7932L15.3475 17.7225ZM14.1875 18.2H1.8125V18.3H14.1875V18.2ZM1.8125 18.2C1.33156 18.2 0.959479 18.0634 0.654352 17.7244L0.580023 17.7913C0.907708 18.1554 1.30907 18.3 1.8125 18.3V18.2ZM0.650636 17.7206C0.311606 17.4155 0.175 17.0434 0.175 16.5625H0.075C0.075 17.0659 0.219644 17.4673 0.583739 17.795L0.650636 17.7206ZM0.175 16.5625V8.6875H0.075V16.5625H0.175ZM0.175 8.6875C0.175 8.24284 0.31097 7.86912 0.652543 7.52754L0.581832 7.45683C0.22028 7.81838 0.075 8.2181 0.075 8.6875H0.175ZM0.652543 7.52754C0.959923 7.22016 1.33406 7.05 1.8125 7.05V6.95C1.30656 6.95 0.907264 7.1314 0.581832 7.45683L0.652543 7.52754ZM1.8125 7.05H2.9375V6.95H1.8125V7.05ZM2.9875 7V5.3125H2.8875V7H2.9875ZM2.9875 5.3125C2.9875 4.40653 3.19645 3.57172 3.64852 2.80669L3.56242 2.75581C3.10042 3.53766 2.8875 4.39034 2.8875 5.3125H2.9875ZM3.64852 2.80669C4.10077 2.04133 4.72714 1.44943 5.49419 0.996171L5.44331 0.910079C4.66348 1.37089 4.02423 1.97429 3.56242 2.75581L3.64852 2.80669ZM5.49419 0.996171C6.26036 0.543432 7.09538 0.3 8 0.3V0.2C7.07649 0.2 6.22401 0.448756 5.44331 0.910079L5.49419 0.996171ZM8 0.3C8.90462 0.3 9.73964 0.543432 10.5058 0.996171L10.5567 0.910079C9.77599 0.448756 8.92351 0.2 8 0.2V0.3ZM10.5058 0.996171C11.2712 1.44843 11.8631 2.0748 12.3163 2.84184L12.4024 2.79097C11.9416 2.01114 11.3382 1.37189 10.5567 0.910079L10.5058 0.996171ZM12.3163 2.84184C12.7691 3.60802 13.0125 4.44304 13.0125 5.34766H13.1125C13.1125 4.42415 12.8637 3.57167 12.4024 2.79097L12.3163 2.84184ZM13.0125 5.34766V7H13.1125V5.34766H13.0125ZM13.0625 7.05H14.1875V6.95H13.0625V7.05ZM4.575 5.3125V7H4.675V5.3125H4.575ZM4.625 7.05H11.375V6.95H4.625V7.05ZM11.425 7V5.3125H11.325V7H11.425ZM11.425 5.3125C11.425 4.38449 11.0677 3.56387 10.4269 2.88749L10.3543 2.95626C10.9792 3.61581 11.325 4.41238 11.325 5.3125H11.425ZM10.425 2.88558C9.74863 2.24479 8.92801 1.8875 8 1.8875V1.9875C8.90012 1.9875 9.69669 2.33333 10.3562 2.95817L10.425 2.88558ZM8 1.8875C7.03731 1.8875 6.21606 2.24448 5.57402 2.88652L5.64473 2.95723C6.26831 2.33365 7.06425 1.9875 8 1.9875V1.8875ZM5.57402 2.88652C4.89634 3.5642 4.575 4.38565 4.575 5.3125H4.675C4.675 4.41122 4.98647 3.61549 5.64473 2.95723L5.57402 2.88652ZM14.2375 16.5625V8.6875H14.1375V16.5625H14.2375ZM14.1875 8.6375H1.8125V8.7375H14.1875V8.6375ZM1.7625 8.6875V16.5625H1.8625V8.6875H1.7625ZM1.8125 16.6125H14.1875V16.5125H1.8125V16.6125Z" fill="white"/>
</svg>
