<?xml version="1.0" encoding="UTF-8" standalone="no"?><svg xmlns="http://www.w3.org/2000/svg" xmlns:xlink="http://www.w3.org/1999/xlink" fill="#ffffff" height="386.4" preserveAspectRatio="xMidYMid meet" version="1" viewBox="0.0 0.0 400.9 386.4" width="400.9" zoomAndPan="magnify"><g id="change1_1"><path d="M397.01,139.37l-37.36-23.44c-3.03-1.81-6.96-0.98-8.85,2.04l-19.36,30.7c0,0,0,0.01-0.01,0.01l-48.92,77.79V6.43 c0-3.55-2.87-6.43-6.43-6.43H6.43C2.87,0,0,2.87,0,6.43v322.29c0,3.55,2.87,6.43,6.43,6.43H218.6l-5.27,44.01 c-0.45,3.48,2.04,6.73,5.6,7.11c1.74,0.15,3.33-0.3,4.61-1.29l43.03-27.37c0.96-0.62,1.7-1.46,2.2-2.42l110.45-175.64 c0.17-0.2,0.33-0.41,0.47-0.63l19.36-30.7C400.86,145.19,400.03,141.26,397.01,139.37z M261.04,343.32l-25.26-15.88l-1.21-0.76 l46.4-73.79c0.41-0.47,0.74-1.01,1-1.59l56.86-90.42l26.46,16.64L261.04,343.32z M12.86,12.86h256.81v234.06l-47.4,75.38H12.86 V12.86z M227.62,367.14l3.25-27.6l20.19,12.7L227.62,367.14z M372.2,166.67l-26.47-16.64l12.48-19.89l26.47,16.64L372.2,166.67z M153.58,82.05l15.12,14.44l-3.55,20.27c-0.45,2.27,0,4.39,0.91,6.2c0.68,1.36,1.66,2.5,2.87,3.4c1.13,0.83,2.5,1.44,3.93,1.66 c1.89,0.3,3.93,0.08,5.9-0.91l19.06-9.83l19.06,9.83c1.97,0.98,4.01,1.21,5.9,0.91c1.44-0.23,2.72-0.83,3.93-1.66 c1.21-0.83,2.27-1.97,2.95-3.4c0.91-1.81,1.29-3.93,0.91-6.2l-3.55-20.27l15.12-14.44c1.66-1.59,2.65-3.55,2.95-5.67 c0.23-1.51,0.08-3.03-0.38-4.46c-0.45-1.36-1.21-2.65-2.19-3.71c-1.36-1.51-3.25-2.57-5.52-2.87l-21.17-3.02l-9.38-18.68 c-1.06-2.04-2.57-3.48-4.46-4.23c-1.36-0.61-2.8-0.98-4.24-0.98c-1.44,0-2.87,0.3-4.24,0.98c-1.74,0.83-3.25,2.27-4.23,4.23 l-9.38,18.68l-21.17,3.02c-2.19,0.3-4.08,1.36-5.52,2.87c-0.98,1.06-1.74,2.34-2.19,3.71v0.08c-0.45,1.44-0.61,2.95-0.38,4.39 C150.94,78.42,151.92,80.46,153.58,82.05z M183.23,74.86c1.44-0.23,2.87-0.83,4.08-1.66c1.29-0.91,2.34-2.04,3.03-3.48v-0.08 l7.64-15.2l7.64,15.2c0.68,1.44,1.74,2.65,3.03,3.63c1.21,0.83,2.57,1.44,4.08,1.66l16.33,2.34l-11.49,10.97 c-1.21,1.13-2.04,2.5-2.57,4.01c-0.45,1.51-0.61,3.18-0.3,4.84l2.8,16.03l-15.28-7.86c-1.29-0.68-2.8-1.06-4.24-1.06 c-1.44,0-2.87,0.38-4.24,1.06l-15.28,7.86l2.8-16.03c0.3-1.66,0.23-3.33-0.3-4.84c-0.45-1.51-1.36-2.87-2.5-4.01l-11.57-11.04 L183.23,74.86z M39.85,81.22c0-3.55,2.87-6.43,6.43-6.43h85.15c3.55,0,6.43,2.87,6.43,6.43s-2.87,6.43-6.43,6.43H46.28 C42.73,87.64,39.85,84.77,39.85,81.22z M39.85,117.67c0-3.55,2.87-6.43,6.43-6.43h85.15c3.55,0,6.43,2.87,6.43,6.43 s-2.87,6.43-6.43,6.43H46.28C42.73,124.09,39.85,121.22,39.85,117.67z M39.85,154.11c0-3.55,2.87-6.43,6.43-6.43h192.83 c3.55,0,6.43,2.87,6.43,6.43c0,3.55-2.87,6.43-6.43,6.43H46.28C42.73,160.54,39.85,157.67,39.85,154.11z M39.85,190.56 c0-3.55,2.87-6.43,6.43-6.43h192.83c3.55,0,6.43,2.87,6.43,6.43c0,3.55-2.87,6.43-6.43,6.43H46.28 C42.73,196.99,39.85,194.12,39.85,190.56z M39.85,227.01c0-3.55,2.87-6.43,6.43-6.43h192.83c3.55,0,6.43,2.87,6.43,6.43 c0,3.55-2.87,6.43-6.43,6.43H46.28C42.73,233.44,39.85,230.57,39.85,227.01z M46.28,269.89c-3.55,0-6.43-2.87-6.43-6.43 c0-3.55,2.87-6.43,6.43-6.43h192.83c3.55,0,6.43,2.87,6.43,6.43c0,3.55-2.87,6.43-6.43,6.43H46.28z"/></g></svg>